<svg xmlns="http://www.w3.org/2000/svg" viewBox="0 0 256 256"><defs><style>.cls-1{fill:#086acc;}</style></defs><g id="Layer_2" data-name="Layer 2"><g id="Layer_1-2" data-name="Layer 1"><circle cx="128" cy="128" r="128"/><path class="cls-1" d="M122.12,166V191.7q-37.49,3.8-62.19,3.8h0q-16.47,0-24.2-8.74T28,159.37h0V98.53q0-20,8-29t25.63-9h60.51V87.12H68.34q-10.1,0-10.09,11.41h0v60.84a10.12,10.12,0,0,0,2.27,6.95,7.39,7.39,0,0,0,5.81,2.56c2.35,0,4.92,0,7.73-.11s5.71-.14,8.73-.26l9.17-.4q4.62-.18,11.93-.76T122.12,166Zm70.59-78.91V193.6H162.45V87.12H127.16V60.5H228V87.12Z"/></g></g></svg>